P2
# CREATOR: GIMP PNM Filter Version 1.1
12 4
255
8
20
9
20
46
23
31
73
36
43
100
43
28
0
0
66
0
0
104
0
0
142
0
143
28
2
0
66
0
0
104
0
0
141
8
10
9
0
0
20
46
23
31
73
36
49
0
0
