P2
# CREATOR: GIMP PNM Filter Version 1.1
80 60
255
9
37
37
25
17
27
25
33
19
17
12
24
9
27
29
17
15
6
11
4
10
8
9
9
7
5
14
4
9
12
25
17
11
13
8
32
14
11
13
10
25
28
25
43
21
11
16
12
5
10
15
14
17
14
10
27
34
48
38
41
37
50
51
57
59
54
57
64
50
53
42
31
28
33
43
45
38
36
37
32
35
43
53
29
17
31
27
18
35
32
15
32
8
14
24
14
25
5
6
4
15
11
7
13
10
8
11
9
18
11
18
9
6
4
4
3
34
29
60
62
33
26
27
39
40
9
24
39
105
61
100
94
126
81
6
26
33
27
40
45
38
48
50
49
55
59
56
59
56
53
43
28
32
7
10
7
10
12
10
11
2
25
56
20
26
25
4
21
31
43
22
21
39
31
17
39
1
3
13
2
15
14
11
21
22
10
20
9
15
14
15
23
10
9
4
11
9
0
73
27
22
11
28
35
73
13
50
10
60
41
163
80
82
73
14
30
38
44
44
21
48
54
55
54
56
57
58
59
54
43
39
28
37
11
30
27
27
27
27
30
10
28
31
45
46
37
3
34
34
39
42
36
29
47
36
16
16
4
5
4
28
23
10
17
26
15
23
20
15
12
24
29
31
47
69
13
11
7
5
20
17
13
16
57
30
34
18
15
92
17
56
19
53
47
12
19
16
20
24
33
37
37
42
61
57
62
70
62
51
44
42
30
36
11
46
40
42
46
43
43
13
11
83
43
50
39
6
14
42
31
20
11
8
49
49
5
52
5
5
22
38
16
40
23
36
26
12
31
11
14
11
20
37
28
16
13
12
10
10
35
6
12
18
32
16
23
11
14
16
9
11
20
12
17
13
13
20
19
16
32
39
44
56
47
60
63
64
66
51
55
49
30
39
17
49
51
51
48
54
51
12
17
72
10
38
13
2
7
14
10
17
21
34
9
26
3
27
8
11
24
19
7
36
36
23
26
22
30
36
12
9
6
14
56
21
14
30
25
14
53
11
11
17
26
13
19
5
13
13
7
16
14
8
14
11
17
13
28
16
3
49
34
62
59
64
71
71
67
57
49
46
34
40
16
48
47
53
51
57
51
6
25
18
10
2
4
6
6
4
7
21
6
6
13
6
7
6
20
11
2
7
9
14
6
28
45
49
31
46
34
14
10
7
60
22
5
9
15
29
12
11
14
28
15
28
10
27
25
15
12
26
21
14
9
7
21
21
23
46
38
30
41
28
67
68
72
71
69
57
53
47
38
42
18
49
50
54
55
54
59
24
20
21
4
4
2
6
6
5
2
6
7
4
4
4
0
10
3
3
5
4
5
18
24
19
45
34
25
40
36
24
12
26
21
11
6
7
15
33
18
23
16
20
13
16
13
20
32
18
11
14
19
27
20
21
30
29
46
32
59
55
63
46
65
68
72
71
70
68
56
48
42
44
20
43
58
53
53
60
56
43
7
2
6
5
7
7
6
4
9
3
5
13
1
0
35
9
3
3
4
3
6
14
10
20
12
11
16
31
14
6
12
5
5
11
8
8
9
12
2
45
16
10
15
29
11
14
28
24
12
17
16
40
24
17
37
46
57
68
67
60
66
64
73
60
74
73
66
66
55
57
53
49
19
51
52
59
54
62
57
27
5
10
8
7
9
10
7
3
33
16
3
78
64
51
91
2
12
7
5
3
12
9
7
9
15
21
11
5
17
14
14
5
8
3
15
21
17
23
11
44
10
15
19
13
12
13
32
58
48
34
23
37
48
13
37
51
48
23
32
41
58
73
65
78
80
78
73
71
70
53
48
51
25
49
58
60
57
55
64
23
15
15
14
5
16
14
10
13
12
15
5
42
8
29
55
14
6
11
6
4
11
21
13
13
12
13
21
24
8
25
24
18
16
20
81
26
21
35
56
23
64
70
23
139
19
15
24
12
0
2
6
5
7
4
39
49
22
7
12
17
17
24
59
76
77
74
75
72
62
59
53
51
22
54
58
58
63
62
61
35
25
22
13
5
16
8
11
12
10
14
6
4
16
17
19
18
16
9
8
5
12
10
15
23
18
34
49
7
6
21
11
13
14
27
13
8
21
12
21
45
24
153
89
86
22
18
4
7
3
1
3
4
2
0
35
37
33
19
16
26
29
28
43
76
71
86
82
81
69
66
71
58
21
59
59
68
66
61
62
11
31
10
3
5
9
8
14
5
3
16
8
6
10
5
24
18
19
10
11
25
8
23
24
23
20
4
3
24
11
5
11
11
11
26
29
10
10
13
14
24
14
23
41
115
18
8
2
1
2
5
4
3
3
8
32
52
55
63
61
109
64
60
34
81
87
79
79
77
72
62
53
60
33
62
61
63
64
67
62
6
6
4
6
11
20
30
26
29
14
8
3
8
14
11
25
23
30
18
17
30
34
24
24
33
15
6
9
10
11
6
5
27
11
16
14
34
19
36
15
35
32
29
28
34
11
9
3
2
4
4
5
3
3
14
39
71
30
128
88
160
104
71
67
62
77
82
88
86
80
67
57
59
27
69
63
71
66
66
63
6
6
3
20
23
19
26
36
42
51
24
8
12
8
23
32
34
18
23
25
14
33
25
22
12
14
17
20
19
14
9
16
22
54
85
92
69
35
27
77
55
31
42
95
63
18
24
5
3
4
4
4
2
3
22
45
57
140
185
145
127
160
98
74
60
85
93
78
81
77
69
65
68
34
61
70
69
75
63
67
2
8
23
32
40
40
41
40
37
35
18
7
11
6
20
11
13
13
41
16
25
15
30
10
25
10
33
32
16
31
21
32
92
126
134
142
156
116
52
34
79
44
61
90
86
17
29
7
6
6
5
7
5
4
22
87
126
132
180
183
161
146
172
119
63
99
92
85
79
82
80
71
65
29
69
63
70
73
65
64
3
3
25
32
22
39
42
95
105
88
54
17
11
9
8
9
13
19
19
8
16
39
24
9
11
11
15
21
30
28
15
85
135
164
177
186
180
167
126
33
32
7
14
13
20
12
6
3
4
3
2
3
1
0
25
131
85
56
111
165
65
98
164
202
103
141
94
89
76
87
78
70
62
34
72
72
67
67
66
74
6
9
15
36
131
208
220
233
228
221
173
95
13
19
4
3
6
8
19
12
28
47
21
10
7
8
12
14
28
31
27
113
161
181
202
211
198
183
160
50
21
12
11
18
29
12
12
10
10
8
9
9
5
4
60
142
181
175
140
190
194
197
210
190
162
129
103
88
82
84
78
72
69
28
64
68
69
67
77
70
20
13
22
89
182
207
218
223
219
218
207
160
27
27
14
5
9
12
19
19
26
46
12
29
15
12
21
28
30
27
32
127
170
201
214
215
211
201
167
80
17
17
24
19
32
16
17
12
11
6
10
8
7
5
45
139
182
168
144
184
177
193
202
187
188
111
104
96
89
88
79
76
71
39
60
66
74
68
79
75
5
12
16
134
176
199
220
224
232
207
199
172
41
34
33
38
40
41
43
38
35
28
24
26
18
19
17
32
24
29
41
120
167
187
205
207
200
199
166
100
50
22
51
72
27
17
19
15
12
4
10
8
6
7
6
125
125
128
106
157
170
125
176
173
149
97
109
95
91
91
88
82
69
42
73
68
76
76
74
77
15
15
26
81
122
111
163
201
100
112
133
186
56
43
24
23
28
44
33
34
36
35
28
31
31
29
25
37
35
32
90
109
145
151
189
191
148
149
151
123
127
33
116
148
14
15
18
18
16
9
9
10
9
6
0
125
116
78
110
116
153
127
151
170
99
104
110
110
100
88
91
78
73
40
77
74
76
74
69
75
6
9
22
72
108
122
122
217
162
126
167
190
142
13
27
42
64
110
94
121
104
34
35
38
47
32
40
48
32
28
145
123
131
155
124
194
148
176
181
140
119
42
117
147
13
15
18
15
14
9
7
8
5
5
0
84
142
144
162
177
190
189
163
150
100
103
106
112
98
90
91
89
77
40
67
80
76
81
76
81
4
3
5
108
155
167
167
209
201
221
215
197
66
16
146
157
186
185
181
204
191
136
29
19
46
30
19
28
25
15
121
138
191
211
171
178
178
208
190
133
202
114
222
122
10
14
14
9
10
9
7
9
7
6
1
62
116
139
144
145
186
189
173
127
104
105
106
105
105
101
85
82
80
55
77
79
80
89
85
79
7
4
6
104
174
205
159
210
161
191
204
187
43
35
160
190
200
204
207
213
201
171
24
31
25
15
18
24
23
18
61
122
175
166
107
136
128
162
170
125
115
58
123
91
12
16
17
15
15
9
10
8
11
3
1
88
86
124
168
182
191
173
137
137
125
111
112
112
113
97
109
78
56
64
64
70
81
74
69
88
11
7
14
58
156
173
153
127
179
207
182
166
40
60
158
193
190
198
205
205
203
172
26
31
29
16
23
22
23
19
20
96
147
123
116
124
129
128
167
163
114
56
118
82
12
42
32
19
28
37
45
28
10
6
0
147
115
79
82
86
103
125
159
145
159
98
114
113
103
102
59
49
36
23
42
57
66
72
70
76
13
13
15
13
83
154
140
147
151
170
178
163
38
95
146
128
166
208
210
181
159
180
32
29
24
18
24
23
27
19
22
63
143
158
135
130
154
170
151
164
108
57
117
79
35
42
7
14
28
36
48
61
32
8
61
186
155
138
105
101
128
170
176
155
172
100
122
108
93
32
35
58
114
53
32
59
71
59
75
79
22
15
12
24
26
125
151
125
140
186
169
135
99
118
84
63
39
135
162
34
73
101
91
57
24
17
19
20
20
15
22
43
101
129
147
168
152
145
105
206
119
57
119
72
34
42
6
19
26
41
49
60
66
78
63
156
181
181
153
151
179
179
188
211
142
80
96
102
27
26
27
167
213
164
61
67
76
56
44
32
3
13
5
19
7
93
149
204
207
190
127
146
138
140
172
143
163
177
188
156
135
178
142
46
21
17
20
20
19
22
26
95
91
89
82
101
91
88
114
179
165
49
97
29
30
20
20
27
41
36
53
69
71
70
73
62
113
146
192
155
167
183
151
158
73
82
97
46
19
48
186
215
228
220
136
48
45
69
58
44
10
13
19
15
4
142
77
84
76
71
119
177
142
128
193
208
189
177
188
204
213
194
148
25
13
17
24
35
45
48
42
131
136
88
60
47
63
127
144
80
93
80
136
27
17
160
175
72
66
61
62
75
75
75
82
75
69
58
71
90
107
111
76
69
83
83
73
8
19
158
156
157
232
227
192
54
46
50
47
60
23
31
32
5
27
164
141
94
78
123
169
189
104
113
160
167
145
151
167
162
193
157
146
19
44
53
53
53
47
51
23
120
159
168
158
150
168
164
172
31
50
46
31
30
89
190
199
153
51
75
60
49
54
55
76
89
84
80
74
76
76
86
87
89
89
93
25
28
94
168
158
161
150
224
153
78
28
42
30
91
38
39
33
28
23
68
172
151
127
149
179
108
34
113
131
146
161
126
140
165
156
132
68
60
53
56
62
57
53
53
55
32
65
143
198
215
198
135
47
44
51
50
33
25
135
201
205
203
64
38
39
15
31
50
51
88
89
84
87
84
85
92
88
87
89
92
10
66
150
201
193
164
180
196
138
185
46
21
34
184
67
69
42
35
32
27
25
155
170
184
141
29
31
104
121
127
118
145
138
130
140
130
59
63
61
59
63
59
57
57
57
63
64
46
24
22
22
45
59
53
53
47
27
16
131
130
159
197
153
47
39
22
13
31
23
88
82
82
85
86
86
86
87
89
87
83
36
158
155
203
228
204
195
206
189
160
89
10
23
165
82
17
16
16
7
3
10
8
197
90
3
17
44
89
110
124
134
115
149
148
133
110
115
61
66
64
64
62
62
63
63
64
65
61
62
64
61
61
59
49
51
46
29
14
137
109
114
189
171
110
68
79
23
17
21
86
83
82
81
82
84
86
87
87
85
82
24
148
156
192
197
169
194
196
231
223
95
12
17
78
25
29
20
21
21
25
23
20
162
18
27
12
180
95
91
99
154
172
158
121
103
121
212
100
54
71
62
71
66
68
68
66
65
66
62
60
61
58
46
43
36
38
22
23
190
183
193
197
207
210
207
224
109
19
17
75
80
78
80
78
76
85
81
85
83
84
38
1
172
189
152
169
162
204
198
198
79
12
48
127
28
30
32
34
35
35
37
34
86
22
63
126
234
105
131
80
81
95
85
85
137
140
180
177
179
117
79
57
72
69
73
65
66
65
63
62
62
61
57
49
54
48
30
23
195
212
183
189
212
206
228
217
130
23
28
58
77
76
79
75
76
83
77
80
84
80
41
21
154
187
176
210
180
152
199
164
76
12
131
255
29
31
32
34
35
37
39
28
116
195
238
205
65
219
119
141
110
91
109
149
139
196
84
80
184
227
228
182
111
63
64
65
65
65
63
63
63
64
60
56
49
49
45
11
158
160
154
163
172
165
183
192
113
20
33
41
79
75
76
77
71
75
67
74
74
63
30
31
123
183
187
166
165
194
189
41
7
54
226
241
30
31
32
33
37
29
121
236
226
231
212
182
109
116
204
204
168
151
152
176
206
166
169
169
203
221
228
231
236
178
67
66
62
67
64
62
62
61
58
55
55
52
40
13
115
174
155
154
170
172
185
192
52
25
34
30
73
76
76
71
72
75
73
61
59
22
20
21
133
126
192
223
222
185
165
28
19
152
241
237
28
32
35
34
49
205
238
233
233
230
221
180
214
216
179
180
216
227
225
224
198
226
231
227
217
218
233
238
234
227
202
61
66
66
62
60
60
60
60
53
50
47
42
25
41
180
186
174
187
213
187
177
7
27
40
35
67
71
70
68
62
68
70
70
53
35
26
20
132
148
114
106
140
162
182
0
18
187
231
242
26
32
39
65
225
229
228
241
238
235
216
221
235
233
235
238
218
221
222
206
234
240
238
239
236
236
232
241
238
230
221
141
60
66
61
60
59
59
60
58
52
47
38
10
16
157
176
205
211
198
174
163
2
42
52
35
66
70
65
65
65
65
68
53
43
43
26
17
124
160
156
153
167
190
189
129
107
151
169
196
22
33
23
207
233
233
227
244
240
238
244
243
243
243
241
240
240
234
237
240
244
243
243
242
241
242
234
239
241
229
216
212
60
59
58
60
60
58
59
56
54
47
25
17
12
194
156
148
155
165
193
188
23
30
49
32
64
67
67
60
62
60
62
61
28
37
31
9
112
162
165
175
186
201
197
204
215
207
153
85
20
32
54
229
229
236
224
246
242
239
243
244
246
245
243
241
237
236
242
240
243
243
244
244
244
243
239
234
241
230
216
206
110
58
55
56
55
55
51
56
50
46
23
19
106
189
191
174
183
212
216
201
120
75
57
54
59
67
60
58
61
60
59
59
44
36
12
27
127
156
179
183
195
200
210
214
219
217
102
91
17
29
123
225
224
235
219
246
244
242
244
245
244
244
243
244
241
240
244
243
243
245
245
246
244
244
243
232
239
230
221
199
179
52
55
51
51
53
46
38
60
81
150
173
159
199
205
205
212
218
222
220
198
143
171
204
136
105
79
59
51
65
55
51
90
50
36
83
149
149
198
189
199
204
216
224
226
215
82
99
20
19
176
220
222
217
211
245
243
241
243
245
245
244
244
244
240
239
241
242
245
247
247
243
241
241
243
235
235
222
220
202
219
53
56
49
60
60
72
93
104
210
206
204
208
215
208
219
217
226
225
227
218
218
216
214
228
219
93
116
76
55
52
49
158
164
121
140
167
168
220
216
220
219
228
228
228
149
87
99
12
0
220
219
216
219
209
246
241
240
243
246
244
244
243
244
244
239
250
242
245
246
247
243
241
240
244
223
231
220
217
205
219
89
56
48
92
117
109
93
167
219
208
211
213
224
223
236
234
235
235
228
233
231
235
234
239
197
108
110
119
66
55
55
166
187
171
164
191
202
220
221
217
221
226
228
213
90
100
89
55
137
229
220
215
223
206
239
240
238
241
243
245
247
246
246
244
242
243
240
247
246
244
243
242
241
241
216
189
215
214
199
211
148
49
66
114
102
120
104
162
231
220
225
230
230
234
234
234
234
234
236
236
237
236
236
243
157
107
123
103
66
53
67
148
199
189
181
187
205
212
220
222
224
227
229
110
91
99
85
23
163
227
218
214
225
193
238
238
236
239
240
244
247
246
246
244
242
243
240
246
244
243
239
238
236
238
224
189
213
226
200
206
198
39
103
103
88
91
114
136
233
232
232
231
228
232
234
234
235
237
238
239
239
239
240
248
111
110
98
105
99
46
65
86
203
195
190
184
204
213
220
218
214
223
155
88
98
93
80
27
93
234
222
217
221
187
238
236
238
238
237
244
246
246
245
244
241
243
240
244
243
242
240
238
238
234
217
181
218
227
200
197
207
45
109
99
105
71
83
98
229
233
236
237
235
237
237
238
237
236
239
241
241
241
242
229
86
102
96
101
109
46
53
73
137
200
195
196
205
211
219
212
210
177
85
95
98
96
84
21
140
222
222
216
217
185
230
237
238
237
240
243
245
246
245
244
239
245
240
243
243
242
237
236
233
234
224
183
223
224
202
188
203
81
108
103
92
105
82
78
214
235
241
238
239
239
239
239
240
242
246
249
251
252
253
180
81
105
104
103
110
48
50
77
79
180
198
202
206
214
207
207
165
85
98
94
99
94
86
21
183
236
218
225
219
190
204
233
235
232
241
242
244
244
244
244
239
248
240
244
244
240
236
233
228
225
224
182
221
215
208
183
193
129
105
94
89
101
101
91
118
246
251
253
253
253
253
253
252
252
253
253
253
252
248
115
98
103
104
104
108
62
44
66
82
76
150
209
227
226
188
124
83
95
93
100
100
92
85
21
214
233
241
233
211
209
165
226
232
228
235
242
244
244
245
244
241
247
241
242
243
238
236
234
228
223
211
203
213
210
211
185
189
140
103
96
77
101
108
104
103
138
255
253
255
255
255
255
254
253
253
253
252
255
137
115
124
104
103
102
106
71
39
75
75
89
84
74
87
73
82
86
92
95
96
100
98
97
84
36
232
229
233
234
219
203
214
220
221
231
238
239
245
245
243
245
240
247
245
243
242
238
239
234
237
230
229
207
200
207
212
195
177
136
105
99
86
95
115
113
101
117
181
255
255
255
255
255
255
255
253
253
255
175
122
114
124
110
92
105
106
73
39
75
86
86
85
84
84
84
84
78
86
92
100
101
100
95
88
77
230
238
237
229
229
182
224
237
236
233
236
240
245
245
240
246
237
244
243
244
244
240
240
238
233
233
232
200
197
208
219
205
155
131
103
98
94
50
108
116
110
111
117
225
254
254
254
254
254
254
255
252
240
122
121
119
124
85
97
110
107
76
36
75
92
88
89
80
81
81
80
83
88
94
104
98
94
88
86
129
221
237
240
239
232
182
214
233
238
239
241
241
242
244
241
243
238
242
244
243
243
241
241
242
241
229
208
210
191
212
224
209
144
125
104
99
93
58
85
117
119
112
127
126
250
252
253
254
253
252
252
253
148
127
125
124
117
55
97
103
99
71
35
74
84
90
85
94
83
99
81
84
83
83
85
85
81
78
83
166
227
236
240
239
234
194
221
212
229
239
240
241
242
244
241
246
241
245
246
244
244
244
240
242
229
205
218
220
190
217
228
221
131
116
102
96
89
65
82
106
116
120
117
121
148
254
251
251
252
253
253
216
118
121
125
112
92
54
87
101
98
72
23
59
68
75
82
88
75
97
73
79
80
77
77
75
75
76
83
191
226
239
240
232
228
192
231
217
219
238
239
239
242
244
242
246
243
245
245
243
246
247
233
224
222
225
235
220
204
188
185
198
127
112
103
99
88
66
82
99
103
104
109
106
110
188
250
250
248
246
237
107
106
108
111
109
107
49
93
96
93
72
14
53
64
72
84
81
79
100
80
70
76
80
79
84
80
84
85
187
233
226
233
240
235
187
235
227
229
235
238
237
241
244
243
245
242
243
244
243
247
242
238
236
236
239
238
222
155
166
202
183
145
109
103
98
87
70
46
91
94
90
89
91
105
100
208
247
247
233
96
90
82
92
87
96
111
53
90
94
90
75
13
50
64
69
80
82
77
98
90
76
79
87
83
84
82
82
88
185
220
230
202
180
150
151
235
227
232
234
237
238
239
242
244
245
242
242
243
242
242
239
241
241
238
236
227
228
168
220
204
190
175
109
102
97
89
74
52
94
77
78
76
78
78
94
97
207
204
93
89
72
72
77
89
101
110
45
85
97
92
80
19
42
65
73
85
84
74
97
97
87
78
88
91
91
89
89
90
188
223
211
228
232
219
187
229
224
231
235
236
237
237
240
242
244
242
241
241
242
242
241
241
240
237
239
220
234
177
189
226
210
171
111
99
98
89
75
48
78
72
61
63
72
86
93
99
98
99
110
99
84
76
68
68
87
99
45
77
93
96
79
23
37
68
74
85
85
74
97
100
91
80
86
91
92
90
89
91
153
174
222
240
234
217
202
227
224
231
233
235
236
236
240
240
244
241
238
242
241
244
244
242
240
237
234
223
235
200
198
225
214
162
109
101
100
88
74
52
102
100
97
93
96
100
99
93
96
94
101
110
115
112
114
118
115
106
35
73
95
101
85
24
37
66
78
86
80
76
90
103
95
85
85
89
92
92
95
90
84
200
211
227
236
200
190
225
224
231
233
233
235
236
239
240
244
241
241
249
240
244
244
242
239
237
232
230
241
211
218
224
207
190
109
99
100
87
77
47
103
109
115
117
116
115
109
94
107
91
114
122
123
118
118
119
114
99
33
65
91
98
86
26
40
65
80
88
81
78
84
101
99
97
87
95
94
95
92
91
